<svg width="54" height="54" viewBox="0 0 54 54" fill="none" xmlns="http://www.w3.org/2000/svg">
<g clip-path="url(#clip0_2_110)">
<g clip-path="url(#clip1_2_110)">
<path d="M52.3125 40.5H5.0625V13.5C5.0625 11.6362 6.57366 10.125 8.4375 10.125H48.9375C50.8013 10.125 52.3125 11.6362 52.3125 13.5V40.5Z" fill="#353744"/>
</g>
<g clip-path="url(#clip2_2_110)">
<path d="M52.3125 40.5H5.0625V42.1875C5.0625 44.0513 6.57366 45.5625 8.4375 45.5625H48.9375C50.8013 45.5625 52.3125 44.0513 52.3125 42.1875V40.5Z" fill="#808080"/>
</g>
<g clip-path="url(#clip3_2_110)">
<path d="M48.9375 40.5H5.0625V13.5C5.0625 11.6362 6.57366 10.125 8.4375 10.125H45.5625C47.4263 10.125 48.9375 11.6362 48.9375 13.5V40.5Z" fill="#55525B"/>
</g>
<g clip-path="url(#clip4_2_110)">
<path d="M48.9375 40.5H5.0625V42.1875C5.0625 44.0513 6.57366 45.5625 8.4375 45.5625H45.5625C47.4263 45.5625 48.9375 44.0513 48.9375 42.1875V40.5Z" fill="#DBDEE3"/>
</g>
<g clip-path="url(#clip5_2_110)">
<path d="M44.2969 13.5H9.70312C9.0045 13.5 8.4375 14.067 8.4375 14.7656V35.8594C8.4375 36.558 9.0045 37.125 9.70312 37.125H44.2969C44.9955 37.125 45.5625 36.558 45.5625 35.8594V14.7656C45.5625 14.067 44.9955 13.5 44.2969 13.5Z" fill="#FBBE18"/>
</g>
<g clip-path="url(#clip6_2_110)">
<path d="M13.5 20.25H32.0625C32.9948 20.25 33.75 19.4948 33.75 18.5625C33.75 17.6302 32.9948 16.875 32.0625 16.875H13.5C12.5677 16.875 11.8125 17.6302 11.8125 18.5625C11.8125 19.4948 12.5677 20.25 13.5 20.25Z" fill="#F68820"/>
</g>
<g clip-path="url(#clip7_2_110)">
<path d="M13.5 27H32.0625C32.9948 27 33.75 26.2448 33.75 25.3125C33.75 24.3802 32.9948 23.625 32.0625 23.625H13.5C12.5677 23.625 11.8125 24.3802 11.8125 25.3125C11.8125 26.2448 12.5677 27 13.5 27Z" fill="#F68820"/>
</g>
<g clip-path="url(#clip8_2_110)">
<path d="M13.5 33.75H32.0625C32.9948 33.75 33.75 32.9948 33.75 32.0625C33.75 31.1302 32.9948 30.375 32.0625 30.375H13.5C12.5677 30.375 11.8125 31.1302 11.8125 32.0625C11.8125 32.9948 12.5677 33.75 13.5 33.75Z" fill="#F68820"/>
</g>
<g clip-path="url(#clip9_2_110)">
<path d="M35.0156 48.9375H31.6406V45.5625H35.0156V48.9375Z" fill="#808080"/>
</g>
<g clip-path="url(#clip10_2_110)">
<path d="M23.625 45.5625H31.6406V48.9375H23.625V45.5625Z" fill="#B3B4B6"/>
</g>
<g clip-path="url(#clip11_2_110)">
<path d="M38.3906 48.9375H17.2969C15.433 48.9375 13.9219 50.4487 13.9219 52.3125H41.7656C41.7656 50.4487 40.2545 48.9375 38.3906 48.9375Z" fill="#DBDEE3"/>
</g>
<g clip-path="url(#clip12_2_110)">
<path d="M38.3906 48.9375H35.0156C33.1518 48.9375 31.6406 50.4487 31.6406 52.3125H41.7656C41.7656 50.4487 40.2545 48.9375 38.3906 48.9375Z" fill="#808080"/>
</g>
<g clip-path="url(#clip13_2_110)">
<path d="M14.3438 1.6875H11.8125C6.22097 1.6875 1.6875 6.22097 1.6875 11.8125C1.6875 17.404 6.22097 21.9375 11.8125 21.9375H14.3438C19.9353 21.9375 24.4688 17.404 24.4688 11.8125C24.4688 6.22097 19.9353 1.6875 14.3438 1.6875Z" fill="#5C76B2"/>
</g>
<g clip-path="url(#clip14_2_110)">
<path d="M11.8125 21.9375C17.4044 21.9375 21.9375 17.4044 21.9375 11.8125C21.9375 6.22062 17.4044 1.6875 11.8125 1.6875C6.22062 1.6875 1.6875 6.22062 1.6875 11.8125C1.6875 17.4044 6.22062 21.9375 11.8125 21.9375Z" fill="#6FA4D8"/>
</g>
<g clip-path="url(#clip15_2_110)">
<path d="M11.8125 20.25C16.4724 20.25 20.25 16.4724 20.25 11.8125C20.25 7.1526 16.4724 3.375 11.8125 3.375C7.1526 3.375 3.375 7.1526 3.375 11.8125C3.375 16.4724 7.1526 20.25 11.8125 20.25Z" fill="#55525B"/>
</g>
<g clip-path="url(#clip16_2_110)">
<path d="M11.8125 12.2344C11.5796 12.2344 11.3906 12.0454 11.3906 11.8125V5.0625C11.3906 4.82963 11.5796 4.64062 11.8125 4.64062C12.0454 4.64062 12.2344 4.82963 12.2344 5.0625V11.8125C12.2344 12.0454 12.0454 12.2344 11.8125 12.2344Z" fill="#6FA4D8"/>
</g>
<g clip-path="url(#clip17_2_110)">
<path d="M8.2333 15.8144C8.1253 15.8144 8.0173 15.773 7.93462 15.6912C7.77009 15.5267 7.77009 15.2592 7.93462 15.0947L11.5138 11.5146C11.6783 11.3501 11.9458 11.3501 12.1103 11.5146C12.2749 11.6792 12.2749 11.9466 12.1103 12.1112L8.53115 15.6912C8.4493 15.773 8.3413 15.8144 8.2333 15.8144Z" fill="#6FA4D8"/>
</g>
<g clip-path="url(#clip18_2_110)">
<path d="M11.8125 13.5C12.7445 13.5 13.5 12.7445 13.5 11.8125C13.5 10.8805 12.7445 10.125 11.8125 10.125C10.8805 10.125 10.125 10.8805 10.125 11.8125C10.125 12.7445 10.8805 13.5 11.8125 13.5Z" fill="#F68820"/>
</g>
<g clip-path="url(#clip19_2_110)">
<path d="M11.8125 12.6562C12.2785 12.6562 12.6562 12.2785 12.6562 11.8125C12.6562 11.3465 12.2785 10.9688 11.8125 10.9688C11.3465 10.9688 10.9688 11.3465 10.9688 11.8125C10.9688 12.2785 11.3465 12.6562 11.8125 12.6562Z" fill="#DBDEE3"/>
</g>
<g clip-path="url(#clip20_2_110)">
<path d="M5.90625 12.2344H5.0625C4.82963 12.2344 4.64062 12.0454 4.64062 11.8125C4.64062 11.5796 4.82963 11.3906 5.0625 11.3906H5.90625C6.13912 11.3906 6.32812 11.5796 6.32812 11.8125C6.32812 12.0454 6.13912 12.2344 5.90625 12.2344Z" fill="#F68820"/>
</g>
<g clip-path="url(#clip21_2_110)">
<path d="M11.8125 18.9844C11.5796 18.9844 11.3906 18.7954 11.3906 18.5625V17.7188C11.3906 17.4859 11.5796 17.2969 11.8125 17.2969C12.0454 17.2969 12.2344 17.4859 12.2344 17.7188V18.5625C12.2344 18.7954 12.0454 18.9844 11.8125 18.9844Z" fill="#F68820"/>
</g>
<g clip-path="url(#clip22_2_110)">
<path d="M18.5625 12.2344H17.7188C17.4859 12.2344 17.2969 12.0454 17.2969 11.8125C17.2969 11.5796 17.4859 11.3906 17.7188 11.3906H18.5625C18.7954 11.3906 18.9844 11.5796 18.9844 11.8125C18.9844 12.0454 18.7954 12.2344 18.5625 12.2344Z" fill="#F68820"/>
</g>
<g clip-path="url(#clip23_2_110)">
<path d="M39.6562 33.75C38.7239 33.75 37.9688 32.9948 37.9688 32.0625C37.9688 31.1302 38.7239 30.375 39.6562 30.375C40.5886 30.375 41.3438 31.1302 41.3438 32.0625C41.3438 32.9948 40.5886 33.75 39.6562 33.75Z" fill="#F68820"/>
</g>
<g clip-path="url(#clip24_2_110)">
<path d="M39.0235 17.5078L39.6563 18.1406L41.5547 16.2422C41.904 15.8929 42.471 15.8929 42.8203 16.2422C43.1697 16.5915 43.1697 17.1585 42.8203 17.5078L40.2891 20.0391C39.9398 20.3884 39.3728 20.3884 39.0235 20.0391L37.7578 18.7735C37.4085 18.4241 37.4085 17.8571 37.7578 17.5078C38.1071 17.1585 38.6741 17.1585 39.0235 17.5078Z" fill="#5C76B2"/>
</g>
<g clip-path="url(#clip25_2_110)">
<path d="M39.0235 24.2578L39.6563 24.8906L41.5547 22.9922C41.904 22.6429 42.471 22.6429 42.8203 22.9922C43.1697 23.3415 43.1697 23.9085 42.8203 24.2578L40.2891 26.7891C39.9398 27.1384 39.3728 27.1384 39.0235 26.7891L37.7578 25.5235C37.4085 25.1742 37.4085 24.6071 37.7578 24.2578C38.1071 23.9085 38.6741 23.9085 39.0235 24.2578Z" fill="#5C76B2"/>
</g>
</g>
<defs>
<clipPath id="clip0_2_110">
<rect width="50.625" height="50.625" fill="white" transform="translate(1.6875 1.6875)"/>
</clipPath>
<clipPath id="clip1_2_110">
<rect width="47.25" height="30.375" fill="white" transform="translate(5.0625 10.125)"/>
</clipPath>
<clipPath id="clip2_2_110">
<rect width="47.25" height="5.0625" fill="white" transform="translate(5.0625 40.5)"/>
</clipPath>
<clipPath id="clip3_2_110">
<rect width="43.875" height="30.375" fill="white" transform="translate(5.0625 10.125)"/>
</clipPath>
<clipPath id="clip4_2_110">
<rect width="43.875" height="5.0625" fill="white" transform="translate(5.0625 40.5)"/>
</clipPath>
<clipPath id="clip5_2_110">
<rect width="37.125" height="23.625" fill="white" transform="translate(8.4375 13.5)"/>
</clipPath>
<clipPath id="clip6_2_110">
<rect width="21.9375" height="3.375" fill="white" transform="translate(11.8125 16.875)"/>
</clipPath>
<clipPath id="clip7_2_110">
<rect width="21.9375" height="3.375" fill="white" transform="translate(11.8125 23.625)"/>
</clipPath>
<clipPath id="clip8_2_110">
<rect width="21.9375" height="3.375" fill="white" transform="translate(11.8125 30.375)"/>
</clipPath>
<clipPath id="clip9_2_110">
<rect width="3.375" height="3.375" fill="white" transform="translate(31.6406 45.5625)"/>
</clipPath>
<clipPath id="clip10_2_110">
<rect width="8.01562" height="3.375" fill="white" transform="translate(23.625 45.5625)"/>
</clipPath>
<clipPath id="clip11_2_110">
<rect width="27.8438" height="3.375" fill="white" transform="translate(13.9219 48.9375)"/>
</clipPath>
<clipPath id="clip12_2_110">
<rect width="10.125" height="3.375" fill="white" transform="translate(31.6406 48.9375)"/>
</clipPath>
<clipPath id="clip13_2_110">
<rect width="22.7812" height="20.25" fill="white" transform="translate(1.6875 1.6875)"/>
</clipPath>
<clipPath id="clip14_2_110">
<rect width="20.25" height="20.25" fill="white" transform="translate(1.6875 1.6875)"/>
</clipPath>
<clipPath id="clip15_2_110">
<rect width="16.875" height="16.875" fill="white" transform="translate(3.375 3.375)"/>
</clipPath>
<clipPath id="clip16_2_110">
<rect width="0.84375" height="7.59375" fill="white" transform="translate(11.3906 4.64062)"/>
</clipPath>
<clipPath id="clip17_2_110">
<rect width="4.42252" height="4.42315" fill="white" transform="translate(7.81122 11.3912)"/>
</clipPath>
<clipPath id="clip18_2_110">
<rect width="3.375" height="3.375" fill="white" transform="translate(10.125 10.125)"/>
</clipPath>
<clipPath id="clip19_2_110">
<rect width="1.6875" height="1.6875" fill="white" transform="translate(10.9688 10.9688)"/>
</clipPath>
<clipPath id="clip20_2_110">
<rect width="1.6875" height="0.84375" fill="white" transform="translate(4.64062 11.3906)"/>
</clipPath>
<clipPath id="clip21_2_110">
<rect width="0.84375" height="1.6875" fill="white" transform="translate(11.3906 17.2969)"/>
</clipPath>
<clipPath id="clip22_2_110">
<rect width="1.6875" height="0.84375" fill="white" transform="translate(17.2969 11.3906)"/>
</clipPath>
<clipPath id="clip23_2_110">
<rect width="3.375" height="3.375" fill="white" transform="translate(37.9688 30.375)"/>
</clipPath>
<clipPath id="clip24_2_110">
<rect width="5.58648" height="4.32084" fill="white" transform="translate(37.4958 15.9802)"/>
</clipPath>
<clipPath id="clip25_2_110">
<rect width="5.58648" height="4.32085" fill="white" transform="translate(37.4958 22.7302)"/>
</clipPath>
</defs>
</svg>
